<svg xmlns="http://www.w3.org/2000/svg" width="16.001" height="16" viewBox="0 0 16.001 16">
  <defs>
    <style>
      .cls-1 {
        fill: #002a51;
      }
    </style>
  </defs>
  <path id="帮助" class="cls-1" d="M134.844,142.069a8,8,0,1,1,7.893-8.107A8,8,0,0,1,134.844,142.069Zm-.109-3.293a.941.941,0,1,0-.942-.941A.941.941,0,0,0,134.735,138.776Zm0-9.881c-1.751,0-3.169.938-3.274,2.63a.941.941,0,1,0,1.862.193,1.412,1.412,0,1,1,2.823,0c.045.985-.936,1.426-1.411,1.882-1.106.924-.942,1.414-.942,1.412a.941.941,0,0,0,1.881.01,9.327,9.327,0,0,1,1.413-1.422,2.816,2.816,0,0,0,.941-1.882C138.028,129.9,136.554,128.9,134.735,128.9Z" transform="translate(-126.736 -126.07)"/>
</svg>
